{"title":"NH10 (2015) DvD Rip - XviD - [1CD] - M-Subs - IcTv LotterY -={SP","uid":11836719,"size":745116848,"categoryP":"video","categoryS":"other","magnet":"?xt=urn:btih:5d90b7ff37155d6f4597b0ceefd9e15393c4b2b5&amp;dn=NH10+%282015%29+DvD+Rip+-+XviD+-+%5B1CD%5D+-+M-Subs+-+IcTv+LotterY+-%3D%7BSP&amp;tr=udp%3A%2F%2Ftracker.openbittorrent.com%3A80&amp;tr=udp%3A%2F%2Fopen.demonii.com%3A1337&amp;tr=udp%3A%2F%2Ftracker.coppersurfer.tk%3A6969&amp;tr=udp%3A%2F%2Fexodus.desync.com%3A6969","seeders":3,"leechers":6,"uploader":"SS132203","files":20,"time":1429767694,"description":"NH10 (2015) DvD Rip - XviD - [1CD] - M-Subs - IcTv LotterY -={SPARROW}=-\n &lt;a href=&quot;\nhttp://imgsparrow.co/image/LV&quot; rel=&quot;nofollow&quot; target=&quot;_NEW&quot;&gt;\nhttp://imgsparrow.co/image/LV&lt;/a&gt;\n &lt;a href=&quot;\nhttp://imgsparrow.co/image/9b&quot; rel=&quot;nofollow&quot; target=&quot;_NEW&quot;&gt;\nhttp://imgsparrow.co/image/9b&lt;/a&gt;\n\nMovie Info\nBanner : Eros International\nYear : 2015\nCast : Anushka Sharma.Neil Bhoopalam.Darshan Kumaar.\nVideo: XviD\nAudio : MP3\nGenre : Thriller\nSubtitles : ARABIC - ENGLISH - GERMAN - URDU\nResolution : 640 x 272\nRuntime : 1hr 47min\nSource : TMG (Thanks)\n\nFormat                                   : AVI\nFormat/Info                              : Audio Video Interleave\nFile size                                : 694 MiB\nDuration                                 : 1h 47mn\nOverall bit rate                         : 905 Kbps\n\nVideo\nID                                       : 0\nFormat                                   : MPEG-4 Visual\nFormat profile                           : Advanced Simple@L5\nFormat settings, BVOP                    : 2\nFormat settings, QPel                    : No\nFormat settings, GMC                     : No warppoints\nFormat settings, Matrix                  : Default (H.263)\nCodec ID                                 : XVID\nCodec ID/Hint                            : XviD\nDuration                                 : 1h 47mn\nBit rate                                 : 770 Kbps\nWidth                                    : 640 pixels\nHeight                                   : 272 pixels\nDisplay aspect ratio                     : 2.35:1\nFrame rate                               : 29.970 fps\nColor space                              : YUV\nChroma subsampling                       : 4:2:0\nBit depth                                : 8 bits\nScan type                                : Progressive\nCompression mode                         : Lossy\nBits/(Pixel*Frame)                       : 0.148\nStream size                              : 590 MiB (85%)\nWriting library                          : XviD 1.2.1 (UTC 2008-12-04)\n\nAudio\nID                                       : 1\nFormat                                   : MPEG Audio\nFormat version                           : Version 1\nFormat profile                           : Layer 3\nMode                                     : Joint stereo\nMode extension                           : MS Stereo\nCodec ID                                 : 55\nCodec ID/Hint                            : MP3\nDuration                                 : 1h 47mn\nBit rate mode                            : Constant\nBit rate                                 : 128 Kbps\nChannel(s)                               : 2 channels\nSampling rate                            : 48.0 KHz\nCompression mode                         : Lossy\nStream size                              : 98.1 MiB (14%)\n &lt;a href=&quot;\nhttp://imgsparrow.co/image/9h&quot; rel=&quot;nofollow&quot; target=&quot;_NEW&quot;&gt;\nhttp://imgsparrow.co/image/9h&lt;/a&gt;\n &lt;a href=&quot;\nhttp://imgsparrow.co/image/Ll&quot; rel=&quot;nofollow&quot; target=&quot;_NEW&quot;&gt;\nhttp://imgsparrow.co/image/Ll&lt;/a&gt; &lt;a href=&quot;\nhttp://imgsparrow.co/image/Ls&quot; rel=&quot;nofollow&quot; target=&quot;_NEW&quot;&gt;\nhttp://imgsparrow.co/image/Ls&lt;/a&gt; &lt;a href=&quot;\nhttp://imgsparrow.co/image/LS&quot; rel=&quot;nofollow&quot; target=&quot;_NEW&quot;&gt;\nhttp://imgsparrow.co/image/LS&lt;/a&gt; &lt;a href=&quot;\nhttp://imgsparrow.co/image/LR&quot; rel=&quot;nofollow&quot; target=&quot;_NEW&quot;&gt;\nhttp://imgsparrow.co/image/LR&lt;/a&gt; &lt;a href=&quot;\nhttp://imgsparrow.co/image/Lv&quot; rel=&quot;nofollow&quot; target=&quot;_NEW&quot;&gt;\nhttp://imgsparrow.co/image/Lv&lt;/a&gt; &lt;a href=&quot;\nhttp://imgsparrow.co/image/Lx&quot; rel=&quot;nofollow&quot; target=&quot;_NEW&quot;&gt;\nhttp://imgsparrow.co/image/Lx&lt;/a&gt;\n\nSample Within Torrent\nAll Credit Goes To Intellect Clever &amp; IcTv\n &lt;a href=&quot;\nhttp://imgshare.co/image/OE&quot; rel=&quot;nofollow&quot; target=&quot;_NEW&quot;&gt;\nhttp://imgshare.co/image/OE&lt;/a&gt;","torrent":{"xt":"urn:btih:5d90b7ff37155d6f4597b0ceefd9e15393c4b2b5","amp;dn":"NH10+%282015%29+DvD+Rip+-+XviD+-+%5B1CD%5D+-+M-Subs+-+IcTv+LotterY+-%3D%7BSP","amp;tr":["udp%3A%2F%2Ftracker.openbittorrent.com%3A80","udp%3A%2F%2Fopen.demonii.com%3A1337","udp%3A%2F%2Ftracker.coppersurfer.tk%3A6969","udp%3A%2F%2Fexodus.desync.com%3A6969"],"infoHash":"5d90b7ff37155d6f4597b0ceefd9e15393c4b2b5","infoHashBuffer":{"type":"Buffer","data":[93,144,183,255,55,21,93,111,69,151,176,206,239,217,225,83,147,196,178,181]},"announce":[],"urlList":[]}}